<?xml version="1.0" encoding="UTF-8"?>
<svg id="Layer_1" data-name="Layer 1" xmlns="http://www.w3.org/2000/svg" viewBox="0 0 1125 2436">
  <defs>
    <style>
      .cls-1, .cls-2 {
        stroke-width: 0px;
      }

      .cls-2 {
        fill: #bbcad2;
      }
    </style>
  </defs>
  <g>
    <rect class="cls-2" x=".5" y=".5" width="1124" height="2435"/>
    <path class="cls-1" d="M1124,1v2434H1V1h1123M1125,0H0v2436h1125V0h0Z"/>
  </g>
  <g>
    <rect class="cls-2" x="224.5" y="856.5" width="675" height="675"/>
    <path class="cls-1" d="M899,857v674H225v-674h674M900,856H224v676h676v-676h0Z"/>
  </g>
  <g>
    <rect class="cls-2" x="224.5" y="1567.5" width="675" height="675"/>
    <path class="cls-1" d="M899,1568v674H225v-674h674M900,1567H224v676h676v-676h0Z"/>
  </g>
  <g>
    <rect class="cls-2" x="224.5" y="145.5" width="675" height="675"/>
    <path class="cls-1" d="M899,146v674H225V146h674M900,145H224v676h676V145h0Z"/>
  </g>
</svg>