<?xml version="1.0" encoding="UTF-8"?>
<svg id="Layer_1" data-name="Layer 1" xmlns="http://www.w3.org/2000/svg" viewBox="0 0 1920 1080">
  <defs>
    <style>
      .cls-1, .cls-2 {
        stroke-width: 0px;
      }

      .cls-2 {
        fill: #bdccd4;
      }
    </style>
  </defs>
  <g>
    <rect class="cls-2" x=".5" y=".5" width="1919" height="1079"/>
    <path class="cls-1" d="M1919,1v1078H1V1h1918M1920,0H0v1080h1920V0h0Z"/>
  </g>
  <g>
    <rect class="cls-2" x="275" y="331" width="356" height="356"/>
    <path class="cls-1" d="M630.5,331.5v355h-355v-355h355M631.5,330.5h-357v357h357v-357h0Z"/>
  </g>
  <g>
    <rect class="cls-2" x="775" y="331" width="356" height="356"/>
    <path class="cls-1" d="M1130.5,331.5v355h-355v-355h355M1131.5,330.5h-357v357h357v-357h0Z"/>
  </g>
  <g>
    <rect class="cls-2" x="1270" y="331" width="356" height="356"/>
    <path class="cls-1" d="M1625.5,331.5v355h-355v-355h355M1626.5,330.5h-357v357h357v-357h0Z"/>
  </g>
</svg>